<svg width="16" height="17" viewBox="0 0 16 17" fill="none" xmlns="http://www.w3.org/2000/svg">
<g clip-path="url(#clip0_646_1047)">
<path d="M8.75006 7.07884V7.82884H14.5815C14.8504 7.82884 15.0762 7.60296 15.0577 7.33472C14.8154 3.8212 12.0077 1.01356 8.49418 0.771205L8.4425 1.51942L8.44257 1.51943M8.75006 7.07884H14.2808M8.75006 7.07884V1.54816M8.75006 7.07884L8.44257 1.51943M14.2808 7.07884C14.2928 7.18062 14.3024 7.28313 14.3095 7.38633C14.3028 7.28914 14.3423 7.20809 14.3904 7.15877C14.4369 7.11105 14.5041 7.07884 14.5815 7.07884H14.2808ZM14.2808 7.07884C13.9392 4.18559 11.6433 1.88969 8.75006 1.54816M8.75006 1.54816V1.24767C8.75006 1.32502 8.71791 1.39203 8.67036 1.43844C8.62118 1.48643 8.54008 1.52614 8.44257 1.51943M8.75006 1.54816C8.64829 1.53614 8.54577 1.52655 8.44257 1.51943M5.8383 9.55125V9.2406V2.5874C2.86886 3.16922 0.646292 5.8282 0.753748 8.99068L5.8383 9.55125ZM5.8383 9.55125L6.05795 9.77091M5.8383 9.55125L6.05795 9.77091M6.05795 9.77091L10.4023 14.1155C9.45455 14.7121 8.33842 15.0633 7.13863 15.0783L7.13859 15.0783M6.05795 9.77091L7.13859 15.0783M7.13859 15.0783C3.77498 15.1205 0.868097 12.3509 0.753749 8.99072L7.13859 15.0783ZM10.6925 13.9214L10.6923 13.9215L10.6925 13.9214ZM10.3548 9.9906H15.1974C14.9579 11.2116 14.3657 12.3064 13.5302 13.166L10.3548 9.9906ZM15.2531 9.66041L15.253 9.66062L15.2531 9.66041Z" stroke="#C9D5E0" stroke-width="1.5"/>
</g>
<defs>
<clipPath id="clip0_646_1047">
<rect width="16" height="16" fill="white" transform="translate(0 0.299438)"/>
</clipPath>
</defs>
</svg>
