<svg width="16" height="17" viewBox="0 0 16 17" fill="none" xmlns="http://www.w3.org/2000/svg">
<path fill-rule="evenodd" clip-rule="evenodd" d="M12.6673 2.62636H11.334V1.9597C11.334 1.5597 11.0673 1.29303 10.6673 1.29303C10.2673 1.29303 10.0007 1.5597 10.0007 1.9597V2.62636H6.00065V1.9597C6.00065 1.5597 5.73398 1.29303 5.33398 1.29303C4.93398 1.29303 4.66732 1.5597 4.66732 1.9597V2.62636H3.33398C2.20065 2.62636 1.33398 3.49303 1.33398 4.62636V13.9597C1.33398 15.093 2.20065 15.9597 3.33398 15.9597H12.6673C13.8007 15.9597 14.6673 15.093 14.6673 13.9597V4.62636C14.6673 3.49303 13.8007 2.62636 12.6673 2.62636ZM3.33464 3.95972H4.66797V4.62638C4.66797 5.02638 4.93464 5.29305 5.33464 5.29305C5.73464 5.29305 6.0013 5.02638 6.0013 4.62638V3.95972H10.0013V4.62638C10.0013 5.02638 10.268 5.29305 10.668 5.29305C11.068 5.29305 11.3346 5.02638 11.3346 4.62638V3.95972H12.668C13.068 3.95972 13.3346 4.22638 13.3346 4.62638V6.62638H2.66797V4.62638C2.66797 4.22638 2.93464 3.95972 3.33464 3.95972ZM3.33464 14.6264H12.668C13.068 14.6264 13.3346 14.3597 13.3346 13.9597V7.95972H2.66797V13.9597C2.66797 14.3597 2.93464 14.6264 3.33464 14.6264Z" fill="#C9D5E0"/>
<mask id="mask0_459_1080" style="mask-type:luminance" maskUnits="userSpaceOnUse" x="1" y="1" width="14" height="15">
<path fill-rule="evenodd" clip-rule="evenodd" d="M12.6673 2.62636H11.334V1.9597C11.334 1.5597 11.0673 1.29303 10.6673 1.29303C10.2673 1.29303 10.0007 1.5597 10.0007 1.9597V2.62636H6.00065V1.9597C6.00065 1.5597 5.73398 1.29303 5.33398 1.29303C4.93398 1.29303 4.66732 1.5597 4.66732 1.9597V2.62636H3.33398C2.20065 2.62636 1.33398 3.49303 1.33398 4.62636V13.9597C1.33398 15.093 2.20065 15.9597 3.33398 15.9597H12.6673C13.8007 15.9597 14.6673 15.093 14.6673 13.9597V4.62636C14.6673 3.49303 13.8007 2.62636 12.6673 2.62636ZM3.33464 3.95972H4.66797V4.62638C4.66797 5.02638 4.93464 5.29305 5.33464 5.29305C5.73464 5.29305 6.0013 5.02638 6.0013 4.62638V3.95972H10.0013V4.62638C10.0013 5.02638 10.268 5.29305 10.668 5.29305C11.068 5.29305 11.3346 5.02638 11.3346 4.62638V3.95972H12.668C13.068 3.95972 13.3346 4.22638 13.3346 4.62638V6.62638H2.66797V4.62638C2.66797 4.22638 2.93464 3.95972 3.33464 3.95972ZM3.33464 14.6264H12.668C13.068 14.6264 13.3346 14.3597 13.3346 13.9597V7.95972H2.66797V13.9597C2.66797 14.3597 2.93464 14.6264 3.33464 14.6264Z" fill="white"/>
</mask>
<g mask="url(#mask0_459_1080)">
<rect y="0.626343" width="16" height="16" fill="#C9D5E0"/>
</g>
</svg>
