<svg width="687" height="381" viewBox="0 0 687 381" fill="none" xmlns="http://www.w3.org/2000/svg">
<g clip-path="url(#clip0_459_1112)">
<path d="M0.71875 355.126H686.719" stroke="#EBEDF0"/>
<path d="M0.71875 299.126H686.719" stroke="#EBEDF0"/>
<path d="M0.71875 243.126H686.719" stroke="#EBEDF0"/>
<path d="M0.71875 187.126H686.719" stroke="#EBEDF0"/>
<path d="M0.71875 131.126H686.719" stroke="#EBEDF0"/>
<path d="M0.71875 75.1263H686.719" stroke="#EBEDF0"/>
<path d="M0.71875 19.1263H686.719" stroke="#EBEDF0"/>
<path d="M414.719 134.126L415.719 355.124" stroke="#EBEDF0"/>
<g clip-path="url(#clip1_459_1112)">
<path d="M3.7207 377.206C2.90737 377.206 2.28737 376.9 1.8607 376.286C1.4407 375.666 1.2307 374.76 1.2307 373.566C1.2307 372.373 1.4407 371.47 1.8607 370.856C2.2807 370.236 2.9007 369.926 3.7207 369.926C4.5407 369.926 5.1607 370.236 5.5807 370.856C6.0007 371.47 6.2107 372.37 6.2107 373.556C6.2107 374.75 5.99737 375.656 5.5707 376.276C5.1507 376.896 4.53404 377.206 3.7207 377.206ZM3.7207 376.516C4.28737 376.516 4.70404 376.276 4.9707 375.796C5.24404 375.316 5.3807 374.57 5.3807 373.556C5.3807 372.543 5.24404 371.803 4.9707 371.336C4.70404 370.863 4.28737 370.626 3.7207 370.626C3.15404 370.626 2.73404 370.863 2.4607 371.336C2.19404 371.81 2.0607 372.55 2.0607 373.556C2.0607 374.57 2.19404 375.316 2.4607 375.796C2.73404 376.276 3.15404 376.516 3.7207 376.516Z" fill="#9FA2B4"/>
<path d="M29.5707 376.756V370.486L30.0407 370.726L28.1107 371.956V371.166L29.9307 370.006H30.4007V376.756H29.5707ZM28.0007 377.126V376.436H31.9707V377.126H28.0007Z" fill="#9FA2B4"/>
<path d="M53.5507 377.126V376.506L56.0407 373.746C56.374 373.373 56.6174 373.036 56.7707 372.736C56.924 372.436 57.0007 372.136 57.0007 371.836C57.0007 371.443 56.8874 371.143 56.6607 370.936C56.434 370.723 56.1107 370.616 55.6907 370.616C55.344 370.616 55.004 370.686 54.6707 370.826C54.3374 370.96 54.004 371.163 53.6707 371.436L53.3607 370.806C53.6407 370.54 53.994 370.326 54.4207 370.166C54.8474 370.006 55.2774 369.926 55.7107 369.926C56.144 369.926 56.5174 370.003 56.8307 370.156C57.1507 370.303 57.3974 370.516 57.5707 370.796C57.744 371.076 57.8307 371.41 57.8307 371.796C57.8307 372.203 57.7374 372.596 57.5507 372.976C57.3707 373.35 57.0674 373.77 56.6407 374.236L54.2407 376.836L54.1807 376.436H58.1307V377.126H53.5507Z" fill="#9FA2B4"/>
<path d="M81.6507 377.196C81.1907 377.196 80.7474 377.12 80.3207 376.966C79.9007 376.813 79.544 376.596 79.2507 376.316L79.5707 375.686C79.8907 375.96 80.2207 376.166 80.5607 376.306C80.9007 376.44 81.2574 376.506 81.6307 376.506C82.1374 376.506 82.5207 376.393 82.7807 376.166C83.0474 375.94 83.1807 375.606 83.1807 375.166C83.1807 374.726 83.044 374.4 82.7707 374.186C82.4974 373.966 82.0874 373.856 81.5407 373.856H80.7207V373.166H81.3807C81.9074 373.166 82.3107 373.05 82.5907 372.816C82.8707 372.583 83.0107 372.25 83.0107 371.816C83.0107 371.43 82.894 371.133 82.6607 370.926C82.434 370.72 82.1107 370.616 81.6907 370.616C81.3374 370.616 80.994 370.686 80.6607 370.826C80.3274 370.96 79.9974 371.163 79.6707 371.436L79.3607 370.806C79.6474 370.533 80.0007 370.32 80.4207 370.166C80.8407 370.006 81.274 369.926 81.7207 369.926C82.1474 369.926 82.5207 370.003 82.8407 370.156C83.1607 370.303 83.404 370.513 83.5707 370.786C83.744 371.06 83.8307 371.383 83.8307 371.756C83.8307 372.196 83.714 372.573 83.4807 372.886C83.254 373.193 82.9407 373.403 82.5407 373.516L82.5107 373.416C82.9907 373.516 83.3574 373.72 83.6107 374.026C83.864 374.333 83.9907 374.723 83.9907 375.196C83.9907 375.816 83.7807 376.306 83.3607 376.666C82.9407 377.02 82.3707 377.196 81.6507 377.196Z" fill="#9FA2B4"/>
<path d="M108.491 377.126V371.036H108.741L105.781 375.306L105.791 374.896H110.391V375.576H105.211V374.956L108.641 370.006H109.311V377.126H108.491Z" fill="#9FA2B4"/>
<path d="M133.831 377.196C133.397 377.196 132.971 377.12 132.551 376.966C132.131 376.806 131.777 376.59 131.491 376.316L131.801 375.686C132.127 375.953 132.457 376.156 132.791 376.296C133.131 376.436 133.477 376.506 133.831 376.506C134.331 376.506 134.721 376.366 135.001 376.086C135.287 375.8 135.431 375.413 135.431 374.926C135.431 374.613 135.367 374.34 135.241 374.106C135.114 373.866 134.934 373.68 134.701 373.546C134.474 373.413 134.204 373.346 133.891 373.346C133.551 373.346 133.244 373.416 132.971 373.556C132.704 373.69 132.467 373.896 132.261 374.176H131.691V370.006H135.961V370.686H132.511V373.566L132.251 373.536C132.444 373.256 132.691 373.04 132.991 372.886C133.297 372.733 133.641 372.656 134.021 372.656C134.474 372.656 134.867 372.753 135.201 372.946C135.534 373.133 135.791 373.396 135.971 373.736C136.151 374.076 136.241 374.47 136.241 374.916C136.241 375.363 136.141 375.76 135.941 376.106C135.747 376.446 135.471 376.713 135.111 376.906C134.751 377.1 134.324 377.196 133.831 377.196Z" fill="#9FA2B4"/>
<path d="M159.951 377.206C159.091 377.206 158.427 376.91 157.961 376.316C157.494 375.716 157.261 374.86 157.261 373.746C157.261 372.94 157.367 372.253 157.581 371.686C157.801 371.113 158.114 370.676 158.521 370.376C158.934 370.076 159.427 369.926 160.001 369.926C160.414 369.926 160.814 370.003 161.201 370.156C161.587 370.303 161.931 370.52 162.231 370.806L161.921 371.436C161.587 371.15 161.264 370.943 160.951 370.816C160.644 370.683 160.334 370.616 160.021 370.616C159.407 370.616 158.931 370.89 158.591 371.436C158.251 371.976 158.081 372.743 158.081 373.736V374.596L157.961 374.326C158.014 373.986 158.137 373.693 158.331 373.446C158.524 373.193 158.764 373 159.051 372.866C159.344 372.726 159.667 372.656 160.021 372.656C160.461 372.656 160.847 372.753 161.181 372.946C161.514 373.133 161.774 373.396 161.961 373.736C162.147 374.076 162.241 374.47 162.241 374.916C162.241 375.356 162.141 375.75 161.941 376.096C161.747 376.443 161.477 376.716 161.131 376.916C160.791 377.11 160.397 377.206 159.951 377.206ZM159.911 376.516C160.364 376.516 160.731 376.373 161.011 376.086C161.291 375.793 161.431 375.406 161.431 374.926C161.431 374.453 161.291 374.073 161.011 373.786C160.731 373.493 160.361 373.346 159.901 373.346C159.594 373.346 159.321 373.416 159.081 373.556C158.841 373.69 158.654 373.876 158.521 374.116C158.387 374.35 158.321 374.62 158.321 374.926C158.321 375.246 158.387 375.526 158.521 375.766C158.654 376 158.841 376.183 159.081 376.316C159.321 376.45 159.597 376.516 159.911 376.516Z" fill="#9FA2B4"/>
<path d="M184.731 377.126H183.851L187.341 370.366L187.411 370.696H183.371V370.006H188.071V370.616L184.731 377.126Z" fill="#9FA2B4"/>
<path d="M211.721 377.196C211.201 377.196 210.751 377.12 210.371 376.966C209.991 376.806 209.694 376.58 209.481 376.286C209.274 375.993 209.171 375.643 209.171 375.236C209.171 374.743 209.337 374.333 209.671 374.006C210.004 373.68 210.451 373.476 211.011 373.396L210.961 373.546C210.441 373.446 210.037 373.243 209.751 372.936C209.471 372.63 209.331 372.256 209.331 371.816C209.331 371.43 209.431 371.096 209.631 370.816C209.837 370.53 210.117 370.31 210.471 370.156C210.831 370.003 211.247 369.926 211.721 369.926C212.194 369.926 212.607 370.003 212.961 370.156C213.321 370.31 213.601 370.53 213.801 370.816C214.007 371.096 214.111 371.43 214.111 371.816C214.111 372.256 213.967 372.633 213.681 372.946C213.401 373.253 213.004 373.453 212.491 373.546L212.431 373.396C213.011 373.476 213.461 373.683 213.781 374.016C214.107 374.343 214.271 374.75 214.271 375.236C214.271 375.643 214.164 375.993 213.951 376.286C213.744 376.58 213.451 376.806 213.071 376.966C212.691 377.12 212.241 377.196 211.721 377.196ZM211.721 376.516C212.281 376.516 212.711 376.403 213.011 376.176C213.311 375.95 213.461 375.62 213.461 375.186C213.461 374.78 213.297 374.463 212.971 374.236C212.644 374.003 212.227 373.86 211.721 373.806C211.214 373.86 210.797 374.003 210.471 374.236C210.144 374.463 209.981 374.78 209.981 375.186C209.981 375.62 210.131 375.95 210.431 376.176C210.731 376.403 211.161 376.516 211.721 376.516ZM211.721 373.236C212.187 373.183 212.564 373.04 212.851 372.806C213.144 372.573 213.291 372.263 213.291 371.876C213.291 371.476 213.151 371.166 212.871 370.946C212.597 370.72 212.214 370.606 211.721 370.606C211.227 370.606 210.841 370.72 210.561 370.946C210.287 371.166 210.151 371.476 210.151 371.876C210.151 372.263 210.294 372.573 210.581 372.806C210.874 373.04 211.254 373.183 211.721 373.236Z" fill="#9FA2B4"/>
<path d="M237.501 369.926C238.361 369.926 239.024 370.226 239.491 370.826C239.957 371.42 240.191 372.273 240.191 373.386C240.191 374.193 240.081 374.883 239.861 375.456C239.647 376.023 239.334 376.456 238.921 376.756C238.514 377.056 238.021 377.206 237.441 377.206C237.034 377.206 236.634 377.133 236.241 376.986C235.854 376.833 235.511 376.613 235.211 376.326L235.531 375.696C235.871 375.983 236.194 376.193 236.501 376.326C236.807 376.453 237.117 376.516 237.431 376.516C238.044 376.516 238.517 376.246 238.851 375.706C239.191 375.16 239.361 374.39 239.361 373.396V372.536L239.491 372.796C239.437 373.143 239.314 373.443 239.121 373.696C238.927 373.943 238.684 374.136 238.391 374.276C238.097 374.41 237.774 374.476 237.421 374.476C236.987 374.476 236.604 374.383 236.271 374.196C235.937 374.003 235.677 373.736 235.491 373.396C235.304 373.056 235.211 372.663 235.211 372.216C235.211 371.776 235.307 371.383 235.501 371.036C235.701 370.69 235.974 370.42 236.321 370.226C236.667 370.026 237.061 369.926 237.501 369.926ZM237.541 370.616C237.081 370.616 236.711 370.763 236.431 371.056C236.157 371.343 236.021 371.726 236.021 372.206C236.021 372.68 236.161 373.063 236.441 373.356C236.721 373.643 237.091 373.786 237.551 373.786C237.857 373.786 238.131 373.72 238.371 373.586C238.611 373.446 238.797 373.26 238.931 373.026C239.064 372.786 239.131 372.513 239.131 372.206C239.131 371.886 239.064 371.61 238.931 371.376C238.797 371.136 238.611 370.95 238.371 370.816C238.131 370.683 237.854 370.616 237.541 370.616Z" fill="#9FA2B4"/>
<path d="M264.523 376.756V370.486L264.993 370.726L263.063 371.956V371.166L264.883 370.006H265.353V376.756H264.523ZM262.953 377.126V376.436H266.923V377.126H262.953ZM270.769 377.206C269.955 377.206 269.335 376.9 268.909 376.286C268.489 375.666 268.279 374.76 268.279 373.566C268.279 372.373 268.489 371.47 268.909 370.856C269.329 370.236 269.949 369.926 270.769 369.926C271.589 369.926 272.209 370.236 272.629 370.856C273.049 371.47 273.259 372.37 273.259 373.556C273.259 374.75 273.045 375.656 272.619 376.276C272.199 376.896 271.582 377.206 270.769 377.206ZM270.769 376.516C271.335 376.516 271.752 376.276 272.019 375.796C272.292 375.316 272.429 374.57 272.429 373.556C272.429 372.543 272.292 371.803 272.019 371.336C271.752 370.863 271.335 370.626 270.769 370.626C270.202 370.626 269.782 370.863 269.509 371.336C269.242 371.81 269.109 372.55 269.109 373.556C269.109 374.57 269.242 375.316 269.509 375.796C269.782 376.276 270.202 376.516 270.769 376.516Z" fill="#9FA2B4"/>
<path d="M298.523 376.756V370.486L298.993 370.726L297.063 371.956V371.166L298.883 370.006H299.353V376.756H298.523ZM296.953 377.126V376.436H300.923V377.126H296.953ZM304.619 376.756V370.486L305.089 370.726L303.159 371.956V371.166L304.979 370.006H305.449V376.756H304.619ZM303.049 377.126V376.436H307.019V377.126H303.049Z" fill="#9FA2B4"/>
<path d="M332.523 376.756V370.486L332.993 370.726L331.063 371.956V371.166L332.883 370.006H333.353V376.756H332.523ZM330.953 377.126V376.436H334.923V377.126H330.953ZM336.599 377.126V376.506L339.089 373.746C339.422 373.373 339.665 373.036 339.819 372.736C339.972 372.436 340.049 372.136 340.049 371.836C340.049 371.443 339.935 371.143 339.709 370.936C339.482 370.723 339.159 370.616 338.739 370.616C338.392 370.616 338.052 370.686 337.719 370.826C337.385 370.96 337.052 371.163 336.719 371.436L336.409 370.806C336.689 370.54 337.042 370.326 337.469 370.166C337.895 370.006 338.325 369.926 338.759 369.926C339.192 369.926 339.565 370.003 339.879 370.156C340.199 370.303 340.445 370.516 340.619 370.796C340.792 371.076 340.879 371.41 340.879 371.796C340.879 372.203 340.785 372.596 340.599 372.976C340.419 373.35 340.115 373.77 339.689 374.236L337.289 376.836L337.229 376.436H341.179V377.126H336.599Z" fill="#9FA2B4"/>
<path d="M366.523 376.756V370.486L366.993 370.726L365.063 371.956V371.166L366.883 370.006H367.353V376.756H366.523ZM364.953 377.126V376.436H368.923V377.126H364.953ZM372.699 377.196C372.239 377.196 371.795 377.12 371.369 376.966C370.949 376.813 370.592 376.596 370.299 376.316L370.619 375.686C370.939 375.96 371.269 376.166 371.609 376.306C371.949 376.44 372.305 376.506 372.679 376.506C373.185 376.506 373.569 376.393 373.829 376.166C374.095 375.94 374.229 375.606 374.229 375.166C374.229 374.726 374.092 374.4 373.819 374.186C373.545 373.966 373.135 373.856 372.589 373.856H371.769V373.166H372.429C372.955 373.166 373.359 373.05 373.639 372.816C373.919 372.583 374.059 372.25 374.059 371.816C374.059 371.43 373.942 371.133 373.709 370.926C373.482 370.72 373.159 370.616 372.739 370.616C372.385 370.616 372.042 370.686 371.709 370.826C371.375 370.96 371.045 371.163 370.719 371.436L370.409 370.806C370.695 370.533 371.049 370.32 371.469 370.166C371.889 370.006 372.322 369.926 372.769 369.926C373.195 369.926 373.569 370.003 373.889 370.156C374.209 370.303 374.452 370.513 374.619 370.786C374.792 371.06 374.879 371.383 374.879 371.756C374.879 372.196 374.762 372.573 374.529 372.886C374.302 373.193 373.989 373.403 373.589 373.516L373.559 373.416C374.039 373.516 374.405 373.72 374.659 374.026C374.912 374.333 375.039 374.723 375.039 375.196C375.039 375.816 374.829 376.306 374.409 376.666C373.989 377.02 373.419 377.196 372.699 377.196Z" fill="#9FA2B4"/>
<path d="M400.523 376.756V370.486L400.993 370.726L399.063 371.956V371.166L400.883 370.006H401.353V376.756H400.523ZM398.953 377.126V376.436H402.923V377.126H398.953ZM407.539 377.126V371.036H407.789L404.829 375.306L404.839 374.896H409.439V375.576H404.259V374.956L407.689 370.006H408.359V377.126H407.539Z" fill="#9FA2B4"/>
<path d="M434.523 376.756V370.486L434.993 370.726L433.063 371.956V371.166L434.883 370.006H435.353V376.756H434.523ZM432.953 377.126V376.436H436.923V377.126H432.953ZM440.879 377.196C440.445 377.196 440.019 377.12 439.599 376.966C439.179 376.806 438.825 376.59 438.539 376.316L438.849 375.686C439.175 375.953 439.505 376.156 439.839 376.296C440.179 376.436 440.525 376.506 440.879 376.506C441.379 376.506 441.769 376.366 442.049 376.086C442.335 375.8 442.479 375.413 442.479 374.926C442.479 374.613 442.415 374.34 442.289 374.106C442.162 373.866 441.982 373.68 441.749 373.546C441.522 373.413 441.252 373.346 440.939 373.346C440.599 373.346 440.292 373.416 440.019 373.556C439.752 373.69 439.515 373.896 439.309 374.176H438.739V370.006H443.009V370.686H439.559V373.566L439.299 373.536C439.492 373.256 439.739 373.04 440.039 372.886C440.345 372.733 440.689 372.656 441.069 372.656C441.522 372.656 441.915 372.753 442.249 372.946C442.582 373.133 442.839 373.396 443.019 373.736C443.199 374.076 443.289 374.47 443.289 374.916C443.289 375.363 443.189 375.76 442.989 376.106C442.795 376.446 442.519 376.713 442.159 376.906C441.799 377.1 441.372 377.196 440.879 377.196Z" fill="#9FA2B4"/>
<path d="M468.523 376.756V370.486L468.993 370.726L467.063 371.956V371.166L468.883 370.006H469.353V376.756H468.523ZM466.953 377.126V376.436H470.923V377.126H466.953ZM474.999 377.206C474.139 377.206 473.475 376.91 473.009 376.316C472.542 375.716 472.309 374.86 472.309 373.746C472.309 372.94 472.415 372.253 472.629 371.686C472.849 371.113 473.162 370.676 473.569 370.376C473.982 370.076 474.475 369.926 475.049 369.926C475.462 369.926 475.862 370.003 476.249 370.156C476.635 370.303 476.979 370.52 477.279 370.806L476.969 371.436C476.635 371.15 476.312 370.943 475.999 370.816C475.692 370.683 475.382 370.616 475.069 370.616C474.455 370.616 473.979 370.89 473.639 371.436C473.299 371.976 473.129 372.743 473.129 373.736V374.596L473.009 374.326C473.062 373.986 473.185 373.693 473.379 373.446C473.572 373.193 473.812 373 474.099 372.866C474.392 372.726 474.715 372.656 475.069 372.656C475.509 372.656 475.895 372.753 476.229 372.946C476.562 373.133 476.822 373.396 477.009 373.736C477.195 374.076 477.289 374.47 477.289 374.916C477.289 375.356 477.189 375.75 476.989 376.096C476.795 376.443 476.525 376.716 476.179 376.916C475.839 377.11 475.445 377.206 474.999 377.206ZM474.959 376.516C475.412 376.516 475.779 376.373 476.059 376.086C476.339 375.793 476.479 375.406 476.479 374.926C476.479 374.453 476.339 374.073 476.059 373.786C475.779 373.493 475.409 373.346 474.949 373.346C474.642 373.346 474.369 373.416 474.129 373.556C473.889 373.69 473.702 373.876 473.569 374.116C473.435 374.35 473.369 374.62 473.369 374.926C473.369 375.246 473.435 375.526 473.569 375.766C473.702 376 473.889 376.183 474.129 376.316C474.369 376.45 474.645 376.516 474.959 376.516Z" fill="#9FA2B4"/>
<path d="M502.523 376.756V370.486L502.993 370.726L501.063 371.956V371.166L502.883 370.006H503.353V376.756H502.523ZM500.953 377.126V376.436H504.923V377.126H500.953ZM507.779 377.126H506.899L510.389 370.366L510.459 370.696H506.419V370.006H511.119V370.616L507.779 377.126Z" fill="#9FA2B4"/>
<path d="M536.523 376.756V370.486L536.993 370.726L535.063 371.956V371.166L536.883 370.006H537.353V376.756H536.523ZM534.953 377.126V376.436H538.923V377.126H534.953ZM542.769 377.196C542.249 377.196 541.799 377.12 541.419 376.966C541.039 376.806 540.742 376.58 540.529 376.286C540.322 375.993 540.219 375.643 540.219 375.236C540.219 374.743 540.385 374.333 540.719 374.006C541.052 373.68 541.499 373.476 542.059 373.396L542.009 373.546C541.489 373.446 541.085 373.243 540.799 372.936C540.519 372.63 540.379 372.256 540.379 371.816C540.379 371.43 540.479 371.096 540.679 370.816C540.885 370.53 541.165 370.31 541.519 370.156C541.879 370.003 542.295 369.926 542.769 369.926C543.242 369.926 543.655 370.003 544.009 370.156C544.369 370.31 544.649 370.53 544.849 370.816C545.055 371.096 545.159 371.43 545.159 371.816C545.159 372.256 545.015 372.633 544.729 372.946C544.449 373.253 544.052 373.453 543.539 373.546L543.479 373.396C544.059 373.476 544.509 373.683 544.829 374.016C545.155 374.343 545.319 374.75 545.319 375.236C545.319 375.643 545.212 375.993 544.999 376.286C544.792 376.58 544.499 376.806 544.119 376.966C543.739 377.12 543.289 377.196 542.769 377.196ZM542.769 376.516C543.329 376.516 543.759 376.403 544.059 376.176C544.359 375.95 544.509 375.62 544.509 375.186C544.509 374.78 544.345 374.463 544.019 374.236C543.692 374.003 543.275 373.86 542.769 373.806C542.262 373.86 541.845 374.003 541.519 374.236C541.192 374.463 541.029 374.78 541.029 375.186C541.029 375.62 541.179 375.95 541.479 376.176C541.779 376.403 542.209 376.516 542.769 376.516ZM542.769 373.236C543.235 373.183 543.612 373.04 543.899 372.806C544.192 372.573 544.339 372.263 544.339 371.876C544.339 371.476 544.199 371.166 543.919 370.946C543.645 370.72 543.262 370.606 542.769 370.606C542.275 370.606 541.889 370.72 541.609 370.946C541.335 371.166 541.199 371.476 541.199 371.876C541.199 372.263 541.342 372.573 541.629 372.806C541.922 373.04 542.302 373.183 542.769 373.236Z" fill="#9FA2B4"/>
<path d="M570.523 376.756V370.486L570.993 370.726L569.063 371.956V371.166L570.883 370.006H571.353V376.756H570.523ZM568.953 377.126V376.436H572.923V377.126H568.953ZM576.549 369.926C577.409 369.926 578.072 370.226 578.539 370.826C579.005 371.42 579.239 372.273 579.239 373.386C579.239 374.193 579.129 374.883 578.909 375.456C578.695 376.023 578.382 376.456 577.969 376.756C577.562 377.056 577.069 377.206 576.489 377.206C576.082 377.206 575.682 377.133 575.289 376.986C574.902 376.833 574.559 376.613 574.259 376.326L574.579 375.696C574.919 375.983 575.242 376.193 575.549 376.326C575.855 376.453 576.165 376.516 576.479 376.516C577.092 376.516 577.565 376.246 577.899 375.706C578.239 375.16 578.409 374.39 578.409 373.396V372.536L578.539 372.796C578.485 373.143 578.362 373.443 578.169 373.696C577.975 373.943 577.732 374.136 577.439 374.276C577.145 374.41 576.822 374.476 576.469 374.476C576.035 374.476 575.652 374.383 575.319 374.196C574.985 374.003 574.725 373.736 574.539 373.396C574.352 373.056 574.259 372.663 574.259 372.216C574.259 371.776 574.355 371.383 574.549 371.036C574.749 370.69 575.022 370.42 575.369 370.226C575.715 370.026 576.109 369.926 576.549 369.926ZM576.589 370.616C576.129 370.616 575.759 370.763 575.479 371.056C575.205 371.343 575.069 371.726 575.069 372.206C575.069 372.68 575.209 373.063 575.489 373.356C575.769 373.643 576.139 373.786 576.599 373.786C576.905 373.786 577.179 373.72 577.419 373.586C577.659 373.446 577.845 373.26 577.979 373.026C578.112 372.786 578.179 372.513 578.179 372.206C578.179 371.886 578.112 371.61 577.979 371.376C577.845 371.136 577.659 370.95 577.419 370.816C577.179 370.683 576.902 370.616 576.589 370.616Z" fill="#9FA2B4"/>
<path d="M602.503 377.126V376.506L604.993 373.746C605.326 373.373 605.569 373.036 605.723 372.736C605.876 372.436 605.953 372.136 605.953 371.836C605.953 371.443 605.839 371.143 605.613 370.936C605.386 370.723 605.063 370.616 604.643 370.616C604.296 370.616 603.956 370.686 603.623 370.826C603.289 370.96 602.956 371.163 602.623 371.436L602.313 370.806C602.593 370.54 602.946 370.326 603.373 370.166C603.799 370.006 604.229 369.926 604.663 369.926C605.096 369.926 605.469 370.003 605.783 370.156C606.103 370.303 606.349 370.516 606.523 370.796C606.696 371.076 606.783 371.41 606.783 371.796C606.783 372.203 606.689 372.596 606.503 372.976C606.323 373.35 606.019 373.77 605.593 374.236L603.193 376.836L603.133 376.436H607.083V377.126H602.503ZM610.769 377.206C609.955 377.206 609.335 376.9 608.909 376.286C608.489 375.666 608.279 374.76 608.279 373.566C608.279 372.373 608.489 371.47 608.909 370.856C609.329 370.236 609.949 369.926 610.769 369.926C611.589 369.926 612.209 370.236 612.629 370.856C613.049 371.47 613.259 372.37 613.259 373.556C613.259 374.75 613.045 375.656 612.619 376.276C612.199 376.896 611.582 377.206 610.769 377.206ZM610.769 376.516C611.335 376.516 611.752 376.276 612.019 375.796C612.292 375.316 612.429 374.57 612.429 373.556C612.429 372.543 612.292 371.803 612.019 371.336C611.752 370.863 611.335 370.626 610.769 370.626C610.202 370.626 609.782 370.863 609.509 371.336C609.242 371.81 609.109 372.55 609.109 373.556C609.109 374.57 609.242 375.316 609.509 375.796C609.782 376.276 610.202 376.516 610.769 376.516Z" fill="#9FA2B4"/>
<path d="M636.503 377.126V376.506L638.993 373.746C639.326 373.373 639.569 373.036 639.723 372.736C639.876 372.436 639.953 372.136 639.953 371.836C639.953 371.443 639.839 371.143 639.613 370.936C639.386 370.723 639.063 370.616 638.643 370.616C638.296 370.616 637.956 370.686 637.623 370.826C637.289 370.96 636.956 371.163 636.623 371.436L636.313 370.806C636.593 370.54 636.946 370.326 637.373 370.166C637.799 370.006 638.229 369.926 638.663 369.926C639.096 369.926 639.469 370.003 639.783 370.156C640.103 370.303 640.349 370.516 640.523 370.796C640.696 371.076 640.783 371.41 640.783 371.796C640.783 372.203 640.689 372.596 640.503 372.976C640.323 373.35 640.019 373.77 639.593 374.236L637.193 376.836L637.133 376.436H641.083V377.126H636.503ZM644.619 376.756V370.486L645.089 370.726L643.159 371.956V371.166L644.979 370.006H645.449V376.756H644.619ZM643.049 377.126V376.436H647.019V377.126H643.049Z" fill="#9FA2B4"/>
<path d="M670.503 377.126V376.506L672.993 373.746C673.326 373.373 673.569 373.036 673.723 372.736C673.876 372.436 673.953 372.136 673.953 371.836C673.953 371.443 673.839 371.143 673.613 370.936C673.386 370.723 673.063 370.616 672.643 370.616C672.296 370.616 671.956 370.686 671.623 370.826C671.289 370.96 670.956 371.163 670.623 371.436L670.313 370.806C670.593 370.54 670.946 370.326 671.373 370.166C671.799 370.006 672.229 369.926 672.663 369.926C673.096 369.926 673.469 370.003 673.783 370.156C674.103 370.303 674.349 370.516 674.523 370.796C674.696 371.076 674.783 371.41 674.783 371.796C674.783 372.203 674.689 372.596 674.503 372.976C674.323 373.35 674.019 373.77 673.593 374.236L671.193 376.836L671.133 376.436H675.083V377.126H670.503ZM676.599 377.126V376.506L679.089 373.746C679.422 373.373 679.665 373.036 679.819 372.736C679.972 372.436 680.049 372.136 680.049 371.836C680.049 371.443 679.935 371.143 679.709 370.936C679.482 370.723 679.159 370.616 678.739 370.616C678.392 370.616 678.052 370.686 677.719 370.826C677.385 370.96 677.052 371.163 676.719 371.436L676.409 370.806C676.689 370.54 677.042 370.326 677.469 370.166C677.895 370.006 678.325 369.926 678.759 369.926C679.192 369.926 679.565 370.003 679.879 370.156C680.199 370.303 680.445 370.516 680.619 370.796C680.792 371.076 680.879 371.41 680.879 371.796C680.879 372.203 680.785 372.596 680.599 372.976C680.419 373.35 680.115 373.77 679.689 374.236L677.289 376.836L677.229 376.436H681.179V377.126H676.599Z" fill="#9FA2B4"/>
</g>
<path d="M683.723 346.206C682.909 346.206 682.289 345.9 681.863 345.286C681.443 344.666 681.233 343.76 681.233 342.566C681.233 341.373 681.443 340.47 681.863 339.856C682.283 339.236 682.903 338.926 683.723 338.926C684.543 338.926 685.163 339.236 685.583 339.856C686.003 340.47 686.213 341.37 686.213 342.556C686.213 343.75 685.999 344.656 685.573 345.276C685.153 345.896 684.536 346.206 683.723 346.206ZM683.723 345.516C684.289 345.516 684.706 345.276 684.973 344.796C685.246 344.316 685.383 343.57 685.383 342.556C685.383 341.543 685.246 340.803 684.973 340.336C684.706 339.863 684.289 339.626 683.723 339.626C683.156 339.626 682.736 339.863 682.463 340.336C682.196 340.81 682.063 341.55 682.063 342.556C682.063 343.57 682.196 344.316 682.463 344.796C682.736 345.276 683.156 345.516 683.723 345.516Z" fill="#9FA2B4"/>
<path d="M677.477 289.756V283.486L677.947 283.726L676.017 284.956V284.166L677.837 283.006H678.307V289.756H677.477ZM675.907 290.126V289.436H679.877V290.126H675.907ZM683.723 290.206C682.909 290.206 682.289 289.9 681.863 289.286C681.443 288.666 681.233 287.76 681.233 286.566C681.233 285.373 681.443 284.47 681.863 283.856C682.283 283.236 682.903 282.926 683.723 282.926C684.543 282.926 685.163 283.236 685.583 283.856C686.003 284.47 686.213 285.37 686.213 286.556C686.213 287.75 685.999 288.656 685.573 289.276C685.153 289.896 684.536 290.206 683.723 290.206ZM683.723 289.516C684.289 289.516 684.706 289.276 684.973 288.796C685.246 288.316 685.383 287.57 685.383 286.556C685.383 285.543 685.246 284.803 684.973 284.336C684.706 283.863 684.289 283.626 683.723 283.626C683.156 283.626 682.736 283.863 682.463 284.336C682.196 284.81 682.063 285.55 682.063 286.556C682.063 287.57 682.196 288.316 682.463 288.796C682.736 289.276 683.156 289.516 683.723 289.516Z" fill="#9FA2B4"/>
<path d="M675.457 234.126V233.506L677.947 230.746C678.28 230.373 678.523 230.036 678.677 229.736C678.83 229.436 678.907 229.136 678.907 228.836C678.907 228.443 678.793 228.143 678.567 227.936C678.34 227.723 678.017 227.616 677.597 227.616C677.25 227.616 676.91 227.686 676.577 227.826C676.243 227.96 675.91 228.163 675.577 228.436L675.267 227.806C675.547 227.54 675.9 227.326 676.327 227.166C676.753 227.006 677.183 226.926 677.617 226.926C678.05 226.926 678.423 227.003 678.737 227.156C679.057 227.303 679.303 227.516 679.477 227.796C679.65 228.076 679.737 228.41 679.737 228.796C679.737 229.203 679.643 229.596 679.457 229.976C679.277 230.35 678.973 230.77 678.547 231.236L676.147 233.836L676.087 233.436H680.037V234.126H675.457ZM683.723 234.206C682.909 234.206 682.289 233.9 681.863 233.286C681.443 232.666 681.233 231.76 681.233 230.566C681.233 229.373 681.443 228.47 681.863 227.856C682.283 227.236 682.903 226.926 683.723 226.926C684.543 226.926 685.163 227.236 685.583 227.856C686.003 228.47 686.213 229.37 686.213 230.556C686.213 231.75 685.999 232.656 685.573 233.276C685.153 233.896 684.536 234.206 683.723 234.206ZM683.723 233.516C684.289 233.516 684.706 233.276 684.973 232.796C685.246 232.316 685.383 231.57 685.383 230.556C685.383 229.543 685.246 228.803 684.973 228.336C684.706 227.863 684.289 227.626 683.723 227.626C683.156 227.626 682.736 227.863 682.463 228.336C682.196 228.81 682.063 229.55 682.063 230.556C682.063 231.57 682.196 232.316 682.463 232.796C682.736 233.276 683.156 233.516 683.723 233.516Z" fill="#9FA2B4"/>
<path d="M677.557 178.196C677.097 178.196 676.653 178.12 676.227 177.966C675.807 177.813 675.45 177.596 675.157 177.316L675.477 176.686C675.797 176.96 676.127 177.166 676.467 177.306C676.807 177.44 677.163 177.506 677.537 177.506C678.043 177.506 678.427 177.393 678.687 177.166C678.953 176.94 679.087 176.606 679.087 176.166C679.087 175.726 678.95 175.4 678.677 175.186C678.403 174.966 677.993 174.856 677.447 174.856H676.627V174.166H677.287C677.813 174.166 678.217 174.05 678.497 173.816C678.777 173.583 678.917 173.25 678.917 172.816C678.917 172.43 678.8 172.133 678.567 171.926C678.34 171.72 678.017 171.616 677.597 171.616C677.243 171.616 676.9 171.686 676.567 171.826C676.233 171.96 675.903 172.163 675.577 172.436L675.267 171.806C675.553 171.533 675.907 171.32 676.327 171.166C676.747 171.006 677.18 170.926 677.627 170.926C678.053 170.926 678.427 171.003 678.747 171.156C679.067 171.303 679.31 171.513 679.477 171.786C679.65 172.06 679.737 172.383 679.737 172.756C679.737 173.196 679.62 173.573 679.387 173.886C679.16 174.193 678.847 174.403 678.447 174.516L678.417 174.416C678.897 174.516 679.263 174.72 679.517 175.026C679.77 175.333 679.897 175.723 679.897 176.196C679.897 176.816 679.687 177.306 679.267 177.666C678.847 178.02 678.277 178.196 677.557 178.196ZM683.723 178.206C682.909 178.206 682.289 177.9 681.863 177.286C681.443 176.666 681.233 175.76 681.233 174.566C681.233 173.373 681.443 172.47 681.863 171.856C682.283 171.236 682.903 170.926 683.723 170.926C684.543 170.926 685.163 171.236 685.583 171.856C686.003 172.47 686.213 173.37 686.213 174.556C686.213 175.75 685.999 176.656 685.573 177.276C685.153 177.896 684.536 178.206 683.723 178.206ZM683.723 177.516C684.289 177.516 684.706 177.276 684.973 176.796C685.246 176.316 685.383 175.57 685.383 174.556C685.383 173.543 685.246 172.803 684.973 172.336C684.706 171.863 684.289 171.626 683.723 171.626C683.156 171.626 682.736 171.863 682.463 172.336C682.196 172.81 682.063 173.55 682.063 174.556C682.063 175.57 682.196 176.316 682.463 176.796C682.736 177.276 683.156 177.516 683.723 177.516Z" fill="#9FA2B4"/>
<path d="M678.397 122.126V116.036H678.647L675.687 120.306L675.697 119.896H680.297V120.576H675.117V119.956L678.547 115.006H679.217V122.126H678.397ZM683.723 122.206C682.909 122.206 682.289 121.9 681.863 121.286C681.443 120.666 681.233 119.76 681.233 118.566C681.233 117.373 681.443 116.47 681.863 115.856C682.283 115.236 682.903 114.926 683.723 114.926C684.543 114.926 685.163 115.236 685.583 115.856C686.003 116.47 686.213 117.37 686.213 118.556C686.213 119.75 685.999 120.656 685.573 121.276C685.153 121.896 684.536 122.206 683.723 122.206ZM683.723 121.516C684.289 121.516 684.706 121.276 684.973 120.796C685.246 120.316 685.383 119.57 685.383 118.556C685.383 117.543 685.246 116.803 684.973 116.336C684.706 115.863 684.289 115.626 683.723 115.626C683.156 115.626 682.736 115.863 682.463 116.336C682.196 116.81 682.063 117.55 682.063 118.556C682.063 119.57 682.196 120.316 682.463 120.796C682.736 121.276 683.156 121.516 683.723 121.516Z" fill="#9FA2B4"/>
<path d="M677.737 66.1963C677.303 66.1963 676.877 66.1197 676.457 65.9663C676.037 65.8063 675.683 65.5897 675.397 65.3163L675.707 64.6863C676.033 64.953 676.363 65.1563 676.697 65.2963C677.037 65.4363 677.383 65.5063 677.737 65.5063C678.237 65.5063 678.627 65.3663 678.907 65.0863C679.193 64.7997 679.337 64.413 679.337 63.9263C679.337 63.613 679.273 63.3397 679.147 63.1063C679.02 62.8663 678.84 62.6797 678.607 62.5463C678.38 62.413 678.11 62.3463 677.797 62.3463C677.457 62.3463 677.15 62.4163 676.877 62.5563C676.61 62.6897 676.373 62.8963 676.167 63.1763H675.597V59.0063H679.867V59.6863H676.417V62.5663L676.157 62.5363C676.35 62.2563 676.597 62.0397 676.897 61.8863C677.203 61.733 677.547 61.6563 677.927 61.6563C678.38 61.6563 678.773 61.753 679.107 61.9463C679.44 62.133 679.697 62.3963 679.877 62.7363C680.057 63.0763 680.147 63.4697 680.147 63.9163C680.147 64.363 680.047 64.7597 679.847 65.1063C679.653 65.4463 679.377 65.713 679.017 65.9063C678.657 66.0997 678.23 66.1963 677.737 66.1963ZM683.723 66.2063C682.909 66.2063 682.289 65.8997 681.863 65.2863C681.443 64.6663 681.233 63.7597 681.233 62.5663C681.233 61.373 681.443 60.4697 681.863 59.8563C682.283 59.2363 682.903 58.9263 683.723 58.9263C684.543 58.9263 685.163 59.2363 685.583 59.8563C686.003 60.4697 686.213 61.3697 686.213 62.5563C686.213 63.7497 685.999 64.6563 685.573 65.2763C685.153 65.8963 684.536 66.2063 683.723 66.2063ZM683.723 65.5163C684.289 65.5163 684.706 65.2763 684.973 64.7963C685.246 64.3163 685.383 63.5697 685.383 62.5563C685.383 61.543 685.246 60.803 684.973 60.3363C684.706 59.863 684.289 59.6263 683.723 59.6263C683.156 59.6263 682.736 59.863 682.463 60.3363C682.196 60.8097 682.063 61.5497 682.063 62.5563C682.063 63.5697 682.196 64.3163 682.463 64.7963C682.736 65.2763 683.156 65.5163 683.723 65.5163Z" fill="#9FA2B4"/>
<path d="M677.857 10.2063C676.997 10.2063 676.333 9.90968 675.867 9.31634C675.4 8.71634 675.167 7.85968 675.167 6.74634C675.167 5.93968 675.273 5.25301 675.487 4.68634C675.707 4.11301 676.02 3.67634 676.427 3.37634C676.84 3.07634 677.333 2.92634 677.907 2.92634C678.32 2.92634 678.72 3.00301 679.107 3.15634C679.493 3.30301 679.837 3.51968 680.137 3.80634L679.827 4.43634C679.493 4.14968 679.17 3.94301 678.857 3.81634C678.55 3.68301 678.24 3.61634 677.927 3.61634C677.313 3.61634 676.837 3.88968 676.497 4.43634C676.157 4.97634 675.987 5.74301 675.987 6.73634V7.59634L675.867 7.32634C675.92 6.98634 676.043 6.69301 676.237 6.44634C676.43 6.19301 676.67 5.99968 676.957 5.86634C677.25 5.72634 677.573 5.65634 677.927 5.65634C678.367 5.65634 678.753 5.75301 679.087 5.94634C679.42 6.13301 679.68 6.39634 679.867 6.73634C680.053 7.07634 680.147 7.46968 680.147 7.91634C680.147 8.35634 680.047 8.74968 679.847 9.09634C679.653 9.44301 679.383 9.71634 679.037 9.91634C678.697 10.1097 678.303 10.2063 677.857 10.2063ZM677.817 9.51634C678.27 9.51634 678.637 9.37301 678.917 9.08634C679.197 8.79301 679.337 8.40634 679.337 7.92634C679.337 7.45301 679.197 7.07301 678.917 6.78634C678.637 6.49301 678.267 6.34634 677.807 6.34634C677.5 6.34634 677.227 6.41634 676.987 6.55634C676.747 6.68968 676.56 6.87634 676.427 7.11634C676.293 7.34968 676.227 7.61968 676.227 7.92634C676.227 8.24634 676.293 8.52634 676.427 8.76634C676.56 8.99968 676.747 9.18301 676.987 9.31634C677.227 9.44968 677.503 9.51634 677.817 9.51634ZM683.723 10.2063C682.909 10.2063 682.289 9.89968 681.863 9.28634C681.443 8.66634 681.233 7.75968 681.233 6.56634C681.233 5.37301 681.443 4.46968 681.863 3.85634C682.283 3.23634 682.903 2.92634 683.723 2.92634C684.543 2.92634 685.163 3.23634 685.583 3.85634C686.003 4.46968 686.213 5.36968 686.213 6.55634C686.213 7.74968 685.999 8.65634 685.573 9.27634C685.153 9.89634 684.536 10.2063 683.723 10.2063ZM683.723 9.51634C684.289 9.51634 684.706 9.27634 684.973 8.79634C685.246 8.31634 685.383 7.56968 685.383 6.55634C685.383 5.54301 685.246 4.80301 684.973 4.33634C684.706 3.86301 684.289 3.62634 683.723 3.62634C683.156 3.62634 682.736 3.86301 682.463 4.33634C682.196 4.80968 682.063 5.54968 682.063 6.55634C682.063 7.56968 682.196 8.31634 682.463 8.79634C682.736 9.27634 683.156 9.51634 683.723 9.51634Z" fill="#9FA2B4"/>
<mask id="mask0_459_1112" style="mask-type:alpha" maskUnits="userSpaceOnUse" x="0" y="19" width="577" height="337">
<rect x="0.71875" y="19.1263" width="576" height="336" fill="#C4C4C4"/>
</mask>
<g mask="url(#mask0_459_1112)">
<path opacity="0.1" d="M95.1961 189.013C48.2782 187.352 3.66235 265.336 -8.41211 297.854V400.626H596.438V144.126C540.463 141.626 522.761 85.2314 479.854 85.2314C436.946 85.2314 398.207 166.872 376.358 209.767C358.419 247.958 335.535 256.122 326.336 255.43C283.558 257.091 251.014 171.715 240.09 128.819C230.43 80.6649 219.555 70.7028 214.216 70.7028C205.257 70.6718 191.792 84.8168 177.992 132.971C164.193 181.124 142.344 194.547 133.144 195.239C120.277 196.206 104.971 189.012 95.1961 189.013Z" fill="url(#paint0_linear_459_1112)"/>
<path d="M-8.41211 297.854C3.60807 265.336 48.0233 187.352 94.7303 189.013C104.461 189.012 119.698 196.206 132.508 195.239C141.666 194.547 163.417 181.124 177.154 132.971C190.892 84.8168 204.297 70.6718 213.215 70.7028C218.53 70.7028 229.356 80.6649 238.973 128.819C249.848 171.715 282.245 257.091 324.831 255.43C333.989 256.122 356.77 247.958 374.629 209.767C396.38 166.872 434.944 85.2314 477.659 85.2314C520.374 85.2314 537.996 141.626 593.719 144.126" stroke="#00ADEE" stroke-width="2" stroke-linejoin="round"/>
<circle opacity="0.16" cx="414.719" cy="134.126" r="13" stroke="#3751FF" stroke-width="2"/>
<g filter="url(#filter0_d_459_1112)">
<circle cx="414.719" cy="134.126" r="7" fill="white"/>
<circle cx="414.719" cy="134.126" r="5" stroke="#00ADEE" stroke-width="4"/>
</g>
<g filter="url(#filter1_d_459_1112)">
<mask id="path-45-outside-1_459_1112" maskUnits="userSpaceOnUse" x="381.719" y="72.1262" width="66" height="38" fill="black">
<rect fill="white" x="381.719" y="72.1262" width="66" height="38"/>
<path fill-rule="evenodd" clip-rule="evenodd" d="M386.719 73.1262H442.719C444.928 73.1262 446.719 74.9171 446.719 77.1262V99.1262C446.719 101.335 444.928 103.126 442.719 103.126L421.719 103.126L414.979 108.903C414.829 109.031 414.608 109.031 414.458 108.903L407.719 103.126L386.719 103.126C384.51 103.126 382.719 101.335 382.719 99.1262V77.1262C382.719 74.9171 384.51 73.1262 386.719 73.1262Z"/>
</mask>
<path fill-rule="evenodd" clip-rule="evenodd" d="M386.719 73.1262H442.719C444.928 73.1262 446.719 74.9171 446.719 77.1262V99.1262C446.719 101.335 444.928 103.126 442.719 103.126L421.719 103.126L414.979 108.903C414.829 109.031 414.608 109.031 414.458 108.903L407.719 103.126L386.719 103.126C384.51 103.126 382.719 101.335 382.719 99.1262V77.1262C382.719 74.9171 384.51 73.1262 386.719 73.1262Z" fill="white"/>
<path d="M442.719 103.126V103.626V103.126ZM421.719 103.126V102.626H421.534L421.393 102.747L421.719 103.126ZM414.979 108.903L414.654 108.523L414.654 108.523L414.979 108.903ZM414.458 108.903L414.784 108.523L414.784 108.523L414.458 108.903ZM407.719 103.126L408.044 102.747L407.904 102.626H407.719V103.126ZM386.719 103.126V103.626V103.126ZM442.719 72.6262H386.719V73.6262H442.719V72.6262ZM447.219 77.1262C447.219 74.6409 445.204 72.6262 442.719 72.6262V73.6262C444.652 73.6262 446.219 75.1932 446.219 77.1262H447.219ZM447.219 99.1262V77.1262H446.219V99.1262H447.219ZM442.719 103.626C445.204 103.626 447.219 101.612 447.219 99.1262H446.219C446.219 101.059 444.652 102.626 442.719 102.626V103.626ZM421.719 103.626L442.719 103.626V102.626L421.719 102.626V103.626ZM421.393 102.747L414.654 108.523L415.304 109.283L422.044 103.506L421.393 102.747ZM414.654 108.523C414.691 108.491 414.746 108.491 414.784 108.523L414.133 109.283C414.47 109.572 414.967 109.572 415.304 109.283L414.654 108.523ZM414.784 108.523L408.044 102.747L407.393 103.506L414.133 109.283L414.784 108.523ZM386.719 103.626L407.719 103.626V102.626L386.719 102.626V103.626ZM382.219 99.1262C382.219 101.612 384.233 103.626 386.719 103.626V102.626C384.786 102.626 383.219 101.059 383.219 99.1262H382.219ZM382.219 77.1262V99.1262H383.219V77.1262H382.219ZM386.719 72.6262C384.233 72.6262 382.219 74.6409 382.219 77.1262H383.219C383.219 75.1932 384.786 73.6262 386.719 73.6262V72.6262Z" fill="#DFE0EB" mask="url(#path-45-outside-1_459_1112)"/>
</g>
<path d="M411.794 88.0022C412.373 88.1702 412.816 88.4596 413.124 88.8702C413.432 89.2809 413.586 89.7989 413.586 90.4242C413.586 91.2922 413.278 91.9782 412.662 92.4822C412.056 92.9769 411.23 93.2242 410.184 93.2242C409.522 93.2242 408.887 93.1216 408.28 92.9162C407.683 92.7016 407.184 92.4029 406.782 92.0202L407.3 90.9562C408.196 91.6842 409.144 92.0482 410.142 92.0482C411.505 92.0482 412.186 91.4742 412.186 90.3262C412.186 89.7662 412.009 89.3509 411.654 89.0802C411.3 88.8002 410.763 88.6602 410.044 88.6602H408.826V87.4842H409.82C410.511 87.4842 411.038 87.3396 411.402 87.0502C411.766 86.7609 411.948 86.3409 411.948 85.7902C411.948 85.2862 411.794 84.8989 411.486 84.6282C411.188 84.3576 410.763 84.2222 410.212 84.2222C409.279 84.2222 408.355 84.5862 407.44 85.3142L406.922 84.2502C407.314 83.8769 407.809 83.5829 408.406 83.3682C409.013 83.1536 409.638 83.0462 410.282 83.0462C411.216 83.0462 411.958 83.2796 412.508 83.7462C413.068 84.2036 413.348 84.8242 413.348 85.6082C413.348 86.1776 413.213 86.6722 412.942 87.0922C412.672 87.5122 412.289 87.8156 411.794 88.0022ZM420.515 88.0022C421.159 88.1796 421.658 88.4829 422.013 88.9122C422.377 89.3416 422.559 89.8596 422.559 90.4662C422.559 91.3249 422.227 92.0016 421.565 92.4962C420.911 92.9816 420.029 93.2242 418.919 93.2242C417.808 93.2242 416.921 92.9816 416.259 92.4962C415.605 92.0016 415.279 91.3249 415.279 90.4662C415.279 89.8502 415.461 89.3276 415.825 88.8982C416.189 88.4689 416.697 88.1702 417.351 88.0022C416.772 87.8156 416.319 87.5216 415.993 87.1202C415.675 86.7189 415.517 86.2476 415.517 85.7062C415.517 85.1742 415.661 84.7076 415.951 84.3062C416.24 83.9049 416.641 83.5969 417.155 83.3822C417.668 83.1582 418.256 83.0462 418.919 83.0462C419.581 83.0462 420.169 83.1582 420.683 83.3822C421.196 83.5969 421.597 83.9049 421.887 84.3062C422.176 84.7076 422.321 85.1742 422.321 85.7062C422.321 86.2476 422.162 86.7236 421.845 87.1342C421.527 87.5356 421.084 87.8249 420.515 88.0022ZM416.903 85.8322C416.903 86.3176 417.085 86.7142 417.449 87.0222C417.813 87.3209 418.303 87.5122 418.919 87.5962C419.535 87.5122 420.025 87.3209 420.389 87.0222C420.753 86.7142 420.935 86.3176 420.935 85.8322C420.935 85.3189 420.753 84.9222 420.389 84.6422C420.034 84.3529 419.544 84.2082 418.919 84.2082C418.293 84.2082 417.799 84.3529 417.435 84.6422C417.08 84.9222 416.903 85.3189 416.903 85.8322ZM418.919 92.0622C419.637 92.0622 420.193 91.9176 420.585 91.6282C420.977 91.3389 421.173 90.9189 421.173 90.3682C421.173 89.8549 420.967 89.4489 420.557 89.1502C420.155 88.8422 419.609 88.6462 418.919 88.5622C418.228 88.6462 417.677 88.8422 417.267 89.1502C416.865 89.4489 416.665 89.8549 416.665 90.3682C416.665 90.9189 416.861 91.3389 417.253 91.6282C417.645 91.9176 418.2 92.0622 418.919 92.0622Z" fill="#252733"/>
</g>
</g>
<defs>
<filter id="filter0_d_459_1112" x="405.719" y="126.126" width="18" height="18" filterUnits="userSpaceOnUse" color-interpolation-filters="sRGB">
<feFlood flood-opacity="0" result="BackgroundImageFix"/>
<feColorMatrix in="SourceAlpha" type="matrix" values="0 0 0 0 0 0 0 0 0 0 0 0 0 0 0 0 0 0 127 0" result="hardAlpha"/>
<feOffset dy="1"/>
<feGaussianBlur stdDeviation="1"/>
<feColorMatrix type="matrix" values="0 0 0 0 0.215686 0 0 0 0 0.317647 0 0 0 0 1 0 0 0 0.2 0"/>
<feBlend mode="normal" in2="BackgroundImageFix" result="effect1_dropShadow_459_1112"/>
<feBlend mode="normal" in="SourceGraphic" in2="effect1_dropShadow_459_1112" result="shape"/>
</filter>
<filter id="filter1_d_459_1112" x="378.219" y="69.6262" width="73" height="44.8732" filterUnits="userSpaceOnUse" color-interpolation-filters="sRGB">
<feFlood flood-opacity="0" result="BackgroundImageFix"/>
<feColorMatrix in="SourceAlpha" type="matrix" values="0 0 0 0 0 0 0 0 0 0 0 0 0 0 0 0 0 0 127 0" result="hardAlpha"/>
<feOffset dy="1"/>
<feGaussianBlur stdDeviation="2"/>
<feColorMatrix type="matrix" values="0 0 0 0 0 0 0 0 0 0 0 0 0 0 0 0 0 0 0.08 0"/>
<feBlend mode="normal" in2="BackgroundImageFix" result="effect1_dropShadow_459_1112"/>
<feBlend mode="normal" in="SourceGraphic" in2="effect1_dropShadow_459_1112" result="shape"/>
</filter>
<linearGradient id="paint0_linear_459_1112" x1="0.32529" y1="244.626" x2="576.822" y2="245.104" gradientUnits="userSpaceOnUse">
<stop stop-color="#00ADEE"/>
<stop offset="1" stop-color="#00ADEE" stop-opacity="0"/>
</linearGradient>
<clipPath id="clip0_459_1112">
<rect width="686" height="380" fill="white" transform="translate(0.71875 0.126343)"/>
</clipPath>
<clipPath id="clip1_459_1112">
<rect width="716" height="13" fill="white" transform="translate(0.71875 367.126)"/>
</clipPath>
</defs>
</svg>
