<svg width="16" height="17" viewBox="0 0 16 17" fill="none" xmlns="http://www.w3.org/2000/svg">
<path fill-rule="evenodd" clip-rule="evenodd" d="M13.3327 2.62634H2.66602C1.53268 2.62634 0.666016 3.49301 0.666016 4.62634V12.6263C0.666016 13.7597 1.53268 14.6263 2.66602 14.6263H13.3327C14.466 14.6263 15.3327 13.7597 15.3327 12.6263V4.62634C15.3327 3.49301 14.466 2.62634 13.3327 2.62634ZM2.66641 3.95972H13.3331C13.5997 3.95972 13.7997 4.09305 13.9331 4.35972L7.99974 8.49305L2.06641 4.35972C2.19974 4.09305 2.39974 3.95972 2.66641 3.95972ZM2.66667 13.2931H13.3333C13.7333 13.2931 14 13.0264 14 12.6264V5.89307L8.4 9.8264C8.26667 9.89307 8.13333 9.95973 8 9.95973C7.86667 9.95973 7.73333 9.89307 7.6 9.8264L2 5.89307V12.6264C2 13.0264 2.26667 13.2931 2.66667 13.2931Z" fill="#C9D5E0"/>
<mask id="mask0_459_1097" style="mask-type:luminance" maskUnits="userSpaceOnUse" x="0" y="2" width="16" height="13">
<path fill-rule="evenodd" clip-rule="evenodd" d="M13.3327 2.62634H2.66602C1.53268 2.62634 0.666016 3.49301 0.666016 4.62634V12.6263C0.666016 13.7597 1.53268 14.6263 2.66602 14.6263H13.3327C14.466 14.6263 15.3327 13.7597 15.3327 12.6263V4.62634C15.3327 3.49301 14.466 2.62634 13.3327 2.62634ZM2.66641 3.95972H13.3331C13.5997 3.95972 13.7997 4.09305 13.9331 4.35972L7.99974 8.49305L2.06641 4.35972C2.19974 4.09305 2.39974 3.95972 2.66641 3.95972ZM2.66667 13.2931H13.3333C13.7333 13.2931 14 13.0264 14 12.6264V5.89307L8.4 9.8264C8.26667 9.89307 8.13333 9.95973 8 9.95973C7.86667 9.95973 7.73333 9.89307 7.6 9.8264L2 5.89307V12.6264C2 13.0264 2.26667 13.2931 2.66667 13.2931Z" fill="white"/>
</mask>
<g mask="url(#mask0_459_1097)">
<rect y="0.626343" width="16" height="16" fill="#C9D5E0"/>
</g>
</svg>
