<svg width="21" height="21" viewBox="0 0 21 21" fill="none" xmlns="http://www.w3.org/2000/svg">
<path d="M9.22656 13.2922L9.22656 10.7922" stroke="#EA5455" stroke-width="1.5" stroke-linecap="round"/>
<path d="M12.5586 13.2922L12.5586 10.7922" stroke="#EA5455" stroke-width="1.5" stroke-linecap="round"/>
<path d="M3.39258 6.62555H18.3926V6.62555C17.9279 6.62555 17.6956 6.62555 17.5024 6.66398C16.709 6.82179 16.0888 7.44199 15.931 8.23537C15.8926 8.42857 15.8926 8.66089 15.8926 9.12555V13.4589C15.8926 15.3445 15.8926 16.2873 15.3068 16.8731C14.721 17.4589 13.7782 17.4589 11.8926 17.4589H9.89258C8.00696 17.4589 7.06415 17.4589 6.47836 16.8731C5.89258 16.2873 5.89258 15.3445 5.89258 13.4589V9.12555C5.89258 8.66089 5.89258 8.42857 5.85415 8.23537C5.69634 7.44199 5.07614 6.82179 4.28276 6.66398C4.08956 6.62555 3.85723 6.62555 3.39258 6.62555V6.62555Z" stroke="#EA5455" stroke-width="1.5" stroke-linecap="round"/>
<path d="M9.28205 3.60106C9.37701 3.51246 9.58625 3.43418 9.87732 3.37834C10.1684 3.3225 10.525 3.29224 10.8919 3.29224C11.2588 3.29224 11.6155 3.3225 11.9065 3.37834C12.1976 3.43418 12.4068 3.51246 12.5018 3.60106" stroke="#EA5455" stroke-width="1.5" stroke-linecap="round"/>
</svg>
