<svg width="21" height="21" viewBox="0 0 21 21" fill="none" xmlns="http://www.w3.org/2000/svg">
<path d="M8.15306 16.2039L7.78353 15.5512L8.15306 16.2039C8.36326 16.0849 8.5306 15.9169 8.68623 15.7606C8.69894 15.7478 8.71156 15.7352 8.72413 15.7226L14.5824 9.86432L14.6063 9.84041C14.84 9.60675 15.0545 9.39228 15.2136 9.19624C15.3864 8.98334 15.5485 8.72837 15.6088 8.40141C15.6475 8.19156 15.6475 7.97641 15.6088 7.76656C15.5485 7.4396 15.3864 7.18462 15.2136 6.97173C15.0545 6.7757 14.84 6.56124 14.6064 6.3276L14.5824 6.30365L14.0521 6.83398L14.5824 6.30365L14.5585 6.27973C14.3248 6.04604 14.1104 5.83153 13.9143 5.67246C13.7014 5.4997 13.4465 5.33753 13.1195 5.27723C12.9097 5.23852 12.6945 5.23852 12.4847 5.27723C12.1577 5.33753 11.9027 5.4997 11.6898 5.67246C11.4938 5.83153 11.2793 6.04604 11.0457 6.27973L11.0218 6.30366L5.16347 12.1619C5.15091 12.1745 5.13823 12.1871 5.12548 12.1998C4.96922 12.3555 4.80121 12.5228 4.6822 12.733L5.33264 13.1013L4.6822 12.733C4.56318 12.9432 4.50613 13.1734 4.45306 13.3874C4.44873 13.4049 4.44443 13.4223 4.44012 13.4395L3.94326 15.427C3.94064 15.4374 3.93796 15.4481 3.93524 15.4589C3.89742 15.6097 3.85104 15.7946 3.8354 15.9545C3.81772 16.1352 3.81614 16.4917 4.10524 16.7808C4.39433 17.0699 4.75084 17.0683 4.93155 17.0507C5.0915 17.035 5.27636 16.9886 5.42715 16.9508C5.43798 16.9481 5.44864 16.9454 5.4591 16.9428L7.44656 16.4459C7.46379 16.4416 7.48116 16.4373 7.49863 16.433C7.71269 16.3799 7.94285 16.3229 8.15306 16.2039Z" stroke="#00ADEE" stroke-width="1.5"/>
<path d="M10.7188 6.8339L13.2188 5.16724L15.7188 7.66724L14.0521 10.1672L10.7188 6.8339Z" fill="#00ADEE"/>
</svg>
