<svg width="25" height="25" viewBox="0 0 25 25" fill="none" xmlns="http://www.w3.org/2000/svg">
<path d="M24.709 6.60504V12.605C24.709 13.205 24.309 13.605 23.709 13.605C23.109 13.605 22.709 13.205 22.709 12.605V9.00504L14.909 16.805C14.509 17.205 13.909 17.205 13.509 16.805L9.20898 12.505L2.40898 19.305C2.20898 19.505 2.00898 19.605 1.70898 19.605C1.40898 19.605 1.20898 19.505 1.00898 19.305C0.608984 18.905 0.608984 18.305 1.00898 17.905L8.50898 10.405C8.90898 10.005 9.50898 10.005 9.90898 10.405L14.209 14.705L21.309 7.60504H17.709C17.109 7.60504 16.709 7.20504 16.709 6.60504C16.709 6.00504 17.109 5.60504 17.709 5.60504H23.709C23.809 5.60504 24.009 5.60504 24.109 5.70504C24.309 5.80504 24.509 6.00504 24.609 6.20504C24.709 6.30504 24.709 6.50504 24.709 6.60504Z" fill="black"/>
<mask id="mask0_459_1193" style="mask-type:luminance" maskUnits="userSpaceOnUse" x="0" y="5" width="25" height="15">
<path d="M24.709 6.60504V12.605C24.709 13.205 24.309 13.605 23.709 13.605C23.109 13.605 22.709 13.205 22.709 12.605V9.00504L14.909 16.805C14.509 17.205 13.909 17.205 13.509 16.805L9.20898 12.505L2.40898 19.305C2.20898 19.505 2.00898 19.605 1.70898 19.605C1.40898 19.605 1.20898 19.505 1.00898 19.305C0.608984 18.905 0.608984 18.305 1.00898 17.905L8.50898 10.405C8.90898 10.005 9.50898 10.005 9.90898 10.405L14.209 14.705L21.309 7.60504H17.709C17.109 7.60504 16.709 7.20504 16.709 6.60504C16.709 6.00504 17.109 5.60504 17.709 5.60504H23.709C23.809 5.60504 24.009 5.60504 24.109 5.70504C24.309 5.80504 24.509 6.00504 24.609 6.20504C24.709 6.30504 24.709 6.50504 24.709 6.60504Z" fill="white"/>
</mask>
<g mask="url(#mask0_459_1193)">
<rect x="0.708984" y="0.605042" width="24" height="24" fill="#7367F0"/>
</g>
</svg>
