<svg width="25" height="25" viewBox="0 0 25 25" fill="none" xmlns="http://www.w3.org/2000/svg">
<path d="M21.2938 8.30504L10.2937 19.305C10.0938 19.505 9.89375 19.605 9.59375 19.605C9.29375 19.605 9.09375 19.505 8.89375 19.305L3.89375 14.305C3.49375 13.905 3.49375 13.305 3.89375 12.905C4.29375 12.505 4.89375 12.505 5.29375 12.905L9.59375 17.205L19.8937 6.90504C20.2937 6.50504 20.8938 6.50504 21.2938 6.90504C21.6938 7.30504 21.6938 7.90504 21.2938 8.30504Z" fill="black"/>
<mask id="mask0_459_1211" style="mask-type:luminance" maskUnits="userSpaceOnUse" x="3" y="6" width="19" height="14">
<path d="M21.2938 8.30504L10.2937 19.305C10.0938 19.505 9.89375 19.605 9.59375 19.605C9.29375 19.605 9.09375 19.505 8.89375 19.305L3.89375 14.305C3.49375 13.905 3.49375 13.305 3.89375 12.905C4.29375 12.505 4.89375 12.505 5.29375 12.905L9.59375 17.205L19.8937 6.90504C20.2937 6.50504 20.8938 6.50504 21.2938 6.90504C21.6938 7.30504 21.6938 7.90504 21.2938 8.30504Z" fill="white"/>
</mask>
<g mask="url(#mask0_459_1211)">
<rect x="0.59375" y="0.605042" width="24" height="24" fill="#28C76F"/>
</g>
</svg>
