<svg width="14" height="15" viewBox="0 0 14 15" fill="none" xmlns="http://www.w3.org/2000/svg">
<path fill-rule="evenodd" clip-rule="evenodd" d="M1.33268 0.959717H5.99935C6.39935 0.959717 6.66602 1.22638 6.66602 1.62638V6.29305C6.66602 6.69305 6.39935 6.95972 5.99935 6.95972H1.33268C0.932682 6.95972 0.666016 6.69305 0.666016 6.29305V1.62638C0.666016 1.22638 0.932682 0.959717 1.33268 0.959717ZM2 5.62642H5.33333V2.29309H2V5.62642ZM13.3333 0.959717H8.66667C8.26667 0.959717 8 1.22638 8 1.62638V6.29305C8 6.69305 8.26667 6.95972 8.66667 6.95972H13.3333C13.7333 6.95972 14 6.69305 14 6.29305V1.62638C14 1.22638 13.7333 0.959717 13.3333 0.959717ZM9.33203 5.62642H12.6654V2.29309H9.33203V5.62642ZM13.3333 8.29309H8.66667C8.26667 8.29309 8 8.55976 8 8.95976V13.6264C8 14.0264 8.26667 14.2931 8.66667 14.2931H13.3333C13.7333 14.2931 14 14.0264 14 13.6264V8.95976C14 8.55976 13.7333 8.29309 13.3333 8.29309ZM9.33203 12.9597H12.6654V9.62634H9.33203V12.9597ZM5.99935 8.29305H1.33268C0.932682 8.29305 0.666016 8.55972 0.666016 8.95972V13.6264C0.666016 14.0264 0.932682 14.2931 1.33268 14.2931H5.99935C6.39935 14.2931 6.66602 14.0264 6.66602 13.6264V8.95972C6.66602 8.55972 6.39935 8.29305 5.99935 8.29305ZM2 12.9597H5.33333V9.62634H2V12.9597Z" fill="#C9D5E0"/>
</svg>
