<svg width="15" height="17" viewBox="0 0 15 17" fill="none" xmlns="http://www.w3.org/2000/svg">
<path d="M7.55862 16.486C8.66236 16.486 9.55768 15.5906 9.55768 14.486H5.55955C5.55955 15.5906 6.45487 16.486 7.55862 16.486ZM14.2896 11.8075C13.6858 11.1588 12.5561 10.1828 12.5561 6.98596C12.5561 4.55784 10.8536 2.61409 8.55799 2.13721V1.48596C8.55799 0.933774 8.11049 0.485962 7.55862 0.485962C7.00674 0.485962 6.55924 0.933774 6.55924 1.48596V2.13721C4.26362 2.61409 2.56112 4.55784 2.56112 6.98596C2.56112 10.1828 1.43143 11.1588 0.827678 11.8075C0.640178 12.0091 0.557053 12.25 0.558615 12.486C0.562053 12.9985 0.96424 13.486 1.56174 13.486H13.5555C14.153 13.486 14.5555 12.9985 14.5586 12.486C14.5602 12.25 14.4771 12.0088 14.2896 11.8075Z" fill="#C5C7CD"/>
</svg>
