<svg width="16" height="17" viewBox="0 0 16 17" fill="none" xmlns="http://www.w3.org/2000/svg">
<path fill-rule="evenodd" clip-rule="evenodd" d="M13.3327 4.62638H11.3327V3.95972C11.3327 2.82638 10.466 1.95972 9.33268 1.95972H6.66602C5.53268 1.95972 4.66602 2.82638 4.66602 3.95972V4.62638H2.66602C1.53268 4.62638 0.666016 5.49305 0.666016 6.62638V13.2931C0.666016 14.4264 1.53268 15.2931 2.66602 15.2931H13.3327C14.466 15.2931 15.3327 14.4264 15.3327 13.2931V6.62638C15.3327 5.49305 14.466 4.62638 13.3327 4.62638ZM6 3.95976C6 3.55976 6.26667 3.29309 6.66667 3.29309H9.33333C9.73333 3.29309 10 3.55976 10 3.95976V4.62642H6V3.95976ZM10 13.9597V5.95972H6V13.9597H10ZM2 13.293V6.62638C2 6.22638 2.26667 5.95972 2.66667 5.95972H4.66667V13.9597H2.66667C2.26667 13.9597 2 13.693 2 13.293ZM13.332 13.9597C13.732 13.9597 13.9987 13.693 13.9987 13.293V6.62638C13.9987 6.22638 13.732 5.95972 13.332 5.95972H11.332V13.9597H13.332Z" fill="#C9D5E0"/>
<mask id="mask0_459_1044" style="mask-type:luminance" maskUnits="userSpaceOnUse" x="0" y="1" width="16" height="15">
<path fill-rule="evenodd" clip-rule="evenodd" d="M13.3327 4.62638H11.3327V3.95972C11.3327 2.82638 10.466 1.95972 9.33268 1.95972H6.66602C5.53268 1.95972 4.66602 2.82638 4.66602 3.95972V4.62638H2.66602C1.53268 4.62638 0.666016 5.49305 0.666016 6.62638V13.2931C0.666016 14.4264 1.53268 15.2931 2.66602 15.2931H13.3327C14.466 15.2931 15.3327 14.4264 15.3327 13.2931V6.62638C15.3327 5.49305 14.466 4.62638 13.3327 4.62638ZM6 3.95976C6 3.55976 6.26667 3.29309 6.66667 3.29309H9.33333C9.73333 3.29309 10 3.55976 10 3.95976V4.62642H6V3.95976ZM10 13.9597V5.95972H6V13.9597H10ZM2 13.293V6.62638C2 6.22638 2.26667 5.95972 2.66667 5.95972H4.66667V13.9597H2.66667C2.26667 13.9597 2 13.693 2 13.293ZM13.332 13.9597C13.732 13.9597 13.9987 13.693 13.9987 13.293V6.62638C13.9987 6.22638 13.732 5.95972 13.332 5.95972H11.332V13.9597H13.332Z" fill="white"/>
</mask>
<g mask="url(#mask0_459_1044)">
<rect y="0.626343" width="16" height="16" fill="#C9D5E0"/>
</g>
</svg>
