<svg width="16" height="16" viewBox="0 0 16 16" fill="none" xmlns="http://www.w3.org/2000/svg">
<path d="M15.5233 9.2406H8.54418L13.1921 13.8885C13.3698 14.0662 13.6621 14.0806 13.8448 13.9085C14.983 12.8362 15.7659 11.3906 15.9957 9.7656C16.0351 9.48736 15.8042 9.2406 15.5233 9.2406ZM15.0577 7.33472C14.8154 3.8212 12.0077 1.01356 8.49418 0.771205C8.22595 0.752676 8.00006 0.978852 8.00006 1.24767V7.82884H14.5815C14.8504 7.82884 15.0762 7.60296 15.0577 7.33472ZM6.5883 9.2406V2.2615C6.5883 1.98061 6.34153 1.74973 6.06359 1.78914C2.55859 2.28444 -0.120524 5.34649 0.00418193 9.01619C0.132417 12.785 3.37742 15.8756 7.14801 15.8282C8.63036 15.8097 10.0001 15.3321 11.1262 14.5332C11.3586 14.3685 11.3739 14.0265 11.1724 13.825L6.5883 9.2406Z" fill="#00ADEE"/>
</svg>
